<svg width="15" height="16" viewBox="0 0 15 16" fill="none" xmlns="http://www.w3.org/2000/svg">
<path fill-rule="evenodd" clip-rule="evenodd" d="M5.06445 3.97121C5.06445 2.6064 6.17084 1.5 7.53566 1.5C8.90047 1.5 10.0069 2.6064 10.0069 3.97121C10.0069 5.33602 8.90047 6.44242 7.53566 6.44242C6.17084 6.44242 5.06445 5.33602 5.06445 3.97121ZM7.53566 0C5.34242 0 3.56445 1.77797 3.56445 3.97121C3.56445 6.16445 5.34242 7.94242 7.53566 7.94242C9.7289 7.94242 11.5069 6.16445 11.5069 3.97121C11.5069 1.77797 9.7289 0 7.53566 0ZM4.31444 9.66363C3.26121 9.66363 2.25112 10.082 1.50637 10.8268C0.761625 11.5715 0.343231 12.5816 0.343231 13.6348V15.2455C0.343231 15.6597 0.679018 15.9955 1.09323 15.9955C1.50744 15.9955 1.84323 15.6597 1.84323 15.2455V13.6348C1.84323 12.9794 2.10359 12.3509 2.56703 11.8874C3.03047 11.424 3.65904 11.1636 4.31444 11.1636H10.7569C11.4123 11.1636 12.0408 11.424 12.5043 11.8874C12.9677 12.3509 13.2281 12.9794 13.2281 13.6348V15.2455C13.2281 15.6597 13.5639 15.9955 13.9781 15.9955C14.3923 15.9955 14.7281 15.6597 14.7281 15.2455V13.6348C14.7281 12.5816 14.3097 11.5715 13.5649 10.8268C12.8202 10.082 11.8101 9.66363 10.7569 9.66363H4.31444Z" fill="#222222"/>
</svg>
