<svg width="18" height="18" viewBox="0 0 18 18" fill="none" xmlns="http://www.w3.org/2000/svg">
<path fill-rule="evenodd" clip-rule="evenodd" d="M7.20074 9L0.90036 2.69962C0.403374 2.20263 0.403375 1.39686 0.900361 0.899873C1.39735 0.402887 2.20312 0.402887 2.70011 0.899873L9.00049 7.20025L15.3009 0.899872C15.7979 0.402886 16.6036 0.402887 17.1006 0.899873C17.5976 1.39686 17.5976 2.20263 17.1006 2.69962L10.8002 9L17.1006 15.3004C17.5976 15.7974 17.5976 16.6031 17.1006 17.1001C16.6036 17.5971 15.7979 17.5971 15.3009 17.1001L9.00049 10.7997L2.70011 17.1001C2.20312 17.5971 1.39735 17.5971 0.900361 17.1001C0.403375 16.6031 0.403375 15.7974 0.900361 15.3004L7.20074 9Z" fill="#444444"/>
</svg>
