<svg width="20" height="20" viewBox="0 0 20 20" fill="none" xmlns="http://www.w3.org/2000/svg">
<rect width="20" height="20" rx="10" fill="#BD2130"/>
<path d="M11.1996 5.59993C11.1996 5.1581 10.8414 4.79993 10.3996 4.79993C9.95778 4.79993 9.59961 5.1581 9.59961 5.59993V11.1999C9.59961 11.6418 9.95778 11.9999 10.3996 11.9999C10.8414 11.9999 11.1996 11.6418 11.1996 11.1999V5.59993Z" fill="white"/>
<path d="M11.1996 14.3999C11.1996 13.9581 10.8414 13.5999 10.3996 13.5999C9.95778 13.5999 9.59961 13.9581 9.59961 14.3999V14.4799C9.59961 14.9218 9.95778 15.2799 10.3996 15.2799C10.8414 15.2799 11.1996 14.9218 11.1996 14.4799V14.3999Z" fill="white"/>
</svg>
