<svg viewBox="0 0 22 17" fill="none" xmlns="http://www.w3.org/2000/svg">
<path d="M11.0001 11.0894C12.6067 11.0894 13.9092 9.78701 13.9092 8.18036C13.9092 6.57371 12.6067 5.27127 11.0001 5.27127C9.39344 5.27127 8.091 6.57371 8.091 8.18036C8.091 9.78701 9.39344 11.0894 11.0001 11.0894Z" fill="#444444"/>
<path d="M21.8655 7.93309C21.0102 5.72047 19.5252 3.80699 17.5941 2.42915C15.6631 1.05131 13.3706 0.269503 11.0001 0.180359C8.62956 0.269503 6.3371 1.05131 4.40605 2.42915C2.47501 3.80699 0.990025 5.72047 0.134636 7.93309C0.0768663 8.09287 0.0768663 8.26784 0.134636 8.42763C0.990025 10.6403 2.47501 12.5537 4.40605 13.9316C6.3371 15.3094 8.62956 16.0912 11.0001 16.1804C13.3706 16.0912 15.6631 15.3094 17.5941 13.9316C19.5252 12.5537 21.0102 10.6403 21.8655 8.42763C21.9233 8.26784 21.9233 8.09287 21.8655 7.93309ZM11.0001 12.9076C10.0651 12.9076 9.15115 12.6304 8.37376 12.1109C7.59636 11.5915 6.99046 10.8532 6.63266 9.98941C6.27486 9.12561 6.18125 8.17511 6.36365 7.25811C6.54605 6.34111 6.99628 5.49879 7.6574 4.83767C8.31852 4.17655 9.16084 3.72632 10.0778 3.54392C10.9948 3.36152 11.9453 3.45513 12.8091 3.81293C13.6729 4.17072 14.4112 4.77663 14.9307 5.55403C15.4501 6.33142 15.7274 7.24539 15.7274 8.18036C15.7254 9.43352 15.2268 10.6348 14.3407 11.5209C13.4545 12.407 12.2533 12.9057 11.0001 12.9076Z" fill="#444444"/>
</svg>
