<svg width="18" height="18" viewBox="0 0 18 18" fill="none" xmlns="http://www.w3.org/2000/svg">
<path fill-rule="evenodd" clip-rule="evenodd" d="M12.8929 11.6086L17.7348 16.4505C17.905 16.6208 18.0005 16.8518 18.0004 17.0925C18.0004 17.3333 17.9046 17.5641 17.7343 17.7343C17.564 17.9045 17.3331 18.0001 17.0923 18C16.8516 17.9999 16.6207 17.9042 16.4505 17.7339L11.6086 12.892C10.1612 14.0131 8.34104 14.5406 6.51844 14.3674C4.69585 14.1941 3.00771 13.333 1.79746 11.9593C0.587216 10.5855 -0.0542374 8.80231 0.00359662 6.97241C0.0614306 5.14251 0.814208 3.40337 2.10879 2.10879C3.40337 0.814208 5.14251 0.0614306 6.97241 0.00359662C8.80231 -0.0542374 10.5855 0.587216 11.9593 1.79746C13.333 3.00771 14.1941 4.69585 14.3674 6.51844C14.5406 8.34104 14.0131 10.1612 12.892 11.6086H12.8929ZM7.20051 12.5995C8.63265 12.5995 10.0061 12.0306 11.0188 11.0179C12.0315 10.0052 12.6004 8.63175 12.6004 7.19961C12.6004 5.76748 12.0315 4.39399 11.0188 3.38132C10.0061 2.36865 8.63265 1.79973 7.20051 1.79973C5.76838 1.79973 4.3949 2.36865 3.38222 3.38132C2.36955 4.39399 1.80063 5.76748 1.80063 7.19961C1.80063 8.63175 2.36955 10.0052 3.38222 11.0179C4.3949 12.0306 5.76838 12.5995 7.20051 12.5995Z" fill="#444444"/>
</svg>
