<svg viewBox="0 0 15 15" fill="none" xmlns="http://www.w3.org/2000/svg">
<path d="M14.6862 1.82904C15.1046 1.41062 15.1046 0.732233 14.6862 0.313814C14.2678 -0.104605 13.5894 -0.104605 13.171 0.313814L7.5 5.98477L1.82904 0.313814C1.41062 -0.104605 0.732233 -0.104605 0.313814 0.313814C-0.104605 0.732233 -0.104605 1.41062 0.313814 1.82904L5.98477 7.5L0.313814 13.171C-0.104605 13.5894 -0.104605 14.2678 0.313814 14.6862C0.732233 15.1046 1.41062 15.1046 1.82904 14.6862L7.5 9.01523L13.171 14.6862C13.5894 15.1046 14.2678 15.1046 14.6862 14.6862C15.1046 14.2678 15.1046 13.5894 14.6862 13.171L9.01523 7.5L14.6862 1.82904Z" fill="#ffffff"/>
</svg>
