<svg viewBox="0 0 25 25" fill="none" xmlns="http://www.w3.org/2000/svg">
<path d="M11.7471 11.2584C11.4234 11.3951 11.164 11.5988 10.9714 11.8722C10.7789 12.1456 10.6813 12.4749 10.6813 12.8627C10.6813 13.3594 10.8905 13.7416 11.3063 14.0123C11.6997 14.2662 12.1126 14.3304 12.5451 14.202C13.0445 14.0569 13.3822 13.7026 13.5607 13.139C13.6444 12.8795 13.6863 12.5893 13.6863 12.2656V10.865C13.3347 10.8761 13.0055 10.9096 12.6958 10.9682C12.3861 11.0268 12.0708 11.1244 11.7471 11.2584ZM12.5005 0C5.59756 0 0.000457764 5.5971 0.000457764 12.5C0.000457764 19.4029 5.59756 25 12.5005 25C19.4034 25 25.0005 19.4029 25.0005 12.5C25.0005 5.5971 19.4034 0 12.5005 0ZM13.4993 7.3298C13.2984 7.02567 12.9385 6.87221 12.4195 6.87221C12.3833 6.87221 12.3358 6.875 12.2717 6.88058C12.2103 6.88616 12.0875 6.92243 11.9117 6.98382C11.7352 7.04697 11.5674 7.13229 11.4123 7.23772C11.2588 7.34375 11.0914 7.51674 10.9101 7.75112C10.7315 7.98828 10.5892 8.26451 10.4832 8.58259L7.86039 8.34821C7.86039 8.00223 7.92736 7.65904 8.0557 7.31864C8.18684 6.97824 8.38494 6.65179 8.6528 6.34208C8.92066 6.02958 9.24153 5.75614 9.61541 5.52176C9.9893 5.2846 10.4413 5.09766 10.9659 4.95536C11.4932 4.81306 12.0568 4.7433 12.6651 4.7433C13.2594 4.7433 13.7979 4.81585 14.2778 4.95815C14.7577 5.10324 15.1455 5.27902 15.4329 5.49107C15.7098 5.69083 15.9537 5.9328 16.1556 6.20815C16.3481 6.476 16.482 6.72433 16.5574 6.95313C16.6327 7.18192 16.669 7.39118 16.669 7.58929V12.6814C16.669 12.8599 16.708 13.0441 16.789 13.2338C16.8699 13.4235 16.9647 13.591 17.0736 13.736C17.1824 13.8811 17.294 14.0123 17.4084 14.135C17.5228 14.255 17.6204 14.3499 17.7041 14.4113L17.8185 14.5061L15.7957 16.4425C15.5585 16.2277 15.3241 16.0128 15.0925 15.7896C14.8609 15.5664 14.688 15.399 14.5764 15.2846L14.4061 15.1116C14.3392 15.0474 14.2666 14.9526 14.1829 14.827C13.9569 15.1674 13.6668 15.4632 13.3152 15.7143C12.9608 15.9654 12.5814 16.1496 12.1796 16.264C11.775 16.3783 11.3593 16.4453 10.9324 16.4621C10.5055 16.4788 10.0953 16.4202 9.70749 16.2807C9.31965 16.1412 8.96809 15.9542 8.65838 15.7143C8.34867 15.4743 8.10314 15.1507 7.91898 14.7377C7.73483 14.3248 7.64276 13.8588 7.64276 13.3315C7.64276 12.846 7.72646 12.4023 7.89108 12.0006C8.05849 11.596 8.27055 11.2612 8.53282 10.9933C8.7951 10.7254 9.11039 10.4855 9.48148 10.2762C9.85258 10.067 10.2181 9.90234 10.5752 9.78237C10.9324 9.66518 11.3174 9.56473 11.7332 9.48382C12.1489 9.4029 12.5032 9.34989 12.799 9.32478C13.0948 9.29967 13.3905 9.28013 13.6863 9.26897V8.16964C13.6863 7.79297 13.6221 7.51395 13.4993 7.3298ZM18.5356 17.9213C18.4575 18.0134 18.3264 18.139 18.1422 18.298C17.958 18.457 17.6734 18.6523 17.2912 18.8867C16.9089 19.1211 16.4876 19.3331 16.0356 19.5257C15.5808 19.7182 15.0228 19.8856 14.3587 20.0279C13.6974 20.1702 13.0139 20.24 12.3135 20.24C11.6048 20.24 10.8989 20.1507 10.1902 19.9721C9.48148 19.7935 8.86206 19.5731 8.32635 19.3108C7.79343 19.0485 7.27724 18.7472 6.78896 18.4124C6.29789 18.0748 5.90448 17.7734 5.60593 17.5056C5.31017 17.2377 5.05905 16.9838 4.85816 16.7494C4.81073 16.6964 4.78003 16.649 4.76887 16.6071C4.75771 16.5653 4.7605 16.529 4.77724 16.5039C4.79398 16.4788 4.8191 16.4593 4.84979 16.4425C4.88312 16.4277 4.91977 16.422 4.95603 16.4259C4.99228 16.4298 5.02686 16.4433 5.05626 16.4648C6.19744 17.1401 7.0903 17.6172 7.73204 17.899C10.0451 18.9146 12.4195 19.1741 14.8554 18.6775C15.9854 18.4459 17.1461 18.058 18.3403 17.5112C18.4296 17.4777 18.5077 17.4693 18.5719 17.486C18.6361 17.5028 18.6695 17.553 18.6695 17.6367C18.6695 17.7148 18.6249 17.8125 18.5356 17.9213ZM20.2069 17.1122C20.1567 17.4219 20.0702 17.7148 19.953 17.9994C19.7521 18.4766 19.4982 18.8365 19.1969 19.0709C19.0964 19.1518 19.0183 19.1769 18.9653 19.149C18.9123 19.1211 18.9123 19.0513 18.9653 18.9425C19.0909 18.683 19.222 18.3343 19.3615 17.8906C19.501 17.4498 19.5205 17.1652 19.4201 17.0396C19.3894 16.9978 19.3448 16.9671 19.2806 16.9392C19.2192 16.9141 19.1383 16.8973 19.0406 16.8862C18.943 16.875 18.8537 16.8694 18.7784 16.8638C18.7002 16.8583 18.597 16.8583 18.4659 16.8638C18.3347 16.8694 18.2426 16.875 18.1841 16.8806C18.0252 16.8961 17.8661 16.91 17.7069 16.9224C17.6707 16.928 17.6316 16.9336 17.5925 16.9364C17.5507 16.9392 17.5172 16.942 17.4949 16.9448L17.4195 16.9531C17.3916 16.9559 17.3721 16.9587 17.3582 16.9587H17.2689L17.241 16.9531L17.2242 16.9392L17.2103 16.9141C17.174 16.822 17.3135 16.7076 17.6288 16.5681C17.9441 16.4286 18.251 16.3421 18.5468 16.3086C18.8202 16.2667 19.1411 16.2667 19.5094 16.3002C19.8777 16.3337 20.1037 16.4035 20.1874 16.5067C20.2516 16.6044 20.2572 16.8052 20.2069 17.1122Z" fill="white"/>
</svg>
