<svg viewBox="0 0 31 25" fill="none" xmlns="http://www.w3.org/2000/svg">
<path d="M9.70681 25C21.3659 25 27.7446 15.3785 27.7446 7.04974C27.7446 6.77919 27.7446 6.50864 27.7322 6.23808C28.9744 5.34238 30.0463 4.23362 30.8976 2.96378C29.7384 3.47343 28.5098 3.80963 27.2518 3.96145C28.5773 3.17175 29.5698 1.93018 30.0449 0.467318C28.7989 1.20282 27.435 1.7192 26.0128 1.99379C25.4208 1.36441 24.7052 0.862704 23.9104 0.519745C23.1156 0.176787 22.2584 -0.000114853 21.3921 5.59454e-08C19.7102 0.00122154 18.0975 0.666612 16.9082 1.85005C15.7188 3.03349 15.0502 4.63823 15.0489 6.31187C15.0489 6.80379 15.1107 7.2834 15.2096 7.75072C12.6882 7.62473 10.2217 6.97249 7.97005 5.83636C5.71845 4.70022 3.73214 3.10559 2.14009 1.156C1.33102 2.54651 1.08404 4.19127 1.44928 5.75638C1.81453 7.32149 2.76462 8.68965 4.10669 9.5831C3.10111 9.54846 2.11782 9.27884 1.23634 8.79604V8.88212C1.2377 10.3383 1.74419 11.7495 2.67022 12.8771C3.59626 14.0047 4.88508 14.7796 6.31893 15.071C5.77553 15.2202 5.21417 15.2946 4.65048 15.2924C4.2411 15.2924 3.84561 15.2555 3.46094 15.1817C3.86513 16.4358 4.6536 17.5325 5.71579 18.3182C6.77798 19.1039 8.06063 19.5391 9.38393 19.5628C7.13855 21.3192 4.36432 22.2722 1.50824 22.2683C1.00153 22.2683 0.494813 22.2437 0.000457764 22.1823C2.89971 24.0232 6.26753 25.0009 9.70681 25Z" fill="white"/>
</svg>
